<?xml version="1.0" standalone="no"?>
<!DOCTYPE svg PUBLIC "-//W3C//DTD SVG 20010904//EN"
 "http://www.w3.org/TR/2001/REC-SVG-20010904/DTD/svg10.dtd">
<svg version="1.0" xmlns="http://www.w3.org/2000/svg"
 width="512.000000pt" height="512.000000pt" viewBox="0 0 512.000000 512.000000"
 preserveAspectRatio="xMidYMid meet">
<metadata>
Created by potrace 1.11, written by Peter Selinger 2001-2013
</metadata>
<g transform="translate(0.000000,512.000000) scale(0.100000,-0.100000)"
fill="#000000" stroke="none">
<path d="M2369 4416 c-2 -2 -33 -6 -69 -10 -113 -10 -152 -17 -260 -42 -217
-51 -342 -117 -513 -274 -45 -41 -58 -49 -97 -60 -40 -11 -108 34 -159 106
l-39 54 -37 -92 c-38 -94 -51 -181 -31 -220 7 -16 3 -17 -45 -13 -30 3 -62 8
-71 11 -33 10 -38 -5 -18 -52 20 -46 23 -64 35 -184 5 -59 13 -119 20 -160 1
-8 6 -37 9 -65 4 -27 9 -66 11 -85 17 -121 20 -230 19 -610 -1 -234 -5 -551
-9 -705 -4 -154 -8 -388 -9 -520 -1 -354 -23 -328 462 -569 352 -174 440 -209
564 -222 64 -7 913 -8 948 -1 14 3 43 8 65 12 81 14 168 51 501 216 216 107
352 180 371 199 17 17 43 55 59 83 29 52 29 53 28 217 -1 91 -4 298 -9 460
-10 395 -10 449 1 710 10 272 11 850 2 940 -41 379 -161 541 -511 692 -80 35
-238 89 -301 103 -214 48 -252 55 -406 72 -54 6 -505 14 -511 9z m251 -1368
c-23 -62 -50 -135 -61 -162 -10 -27 -18 -50 -17 -51 4 -3 212 40 304 64 118
30 258 78 344 118 77 36 224 88 273 97 137 25 194 33 302 41 l60 4 1 -47 c1
-71 15 -648 19 -802 2 -74 6 -256 10 -405 3 -148 8 -337 10 -418 3 -93 1 -156
-5 -168 -17 -31 -652 -343 -742 -364 -63 -14 -136 -17 -518 -17 -428 0 -448 1
-525 22 -53 14 -190 77 -405 184 l-325 163 1 189 c1 164 5 357 19 909 2 66 4
178 5 248 2 127 2 129 39 195 25 46 73 103 159 189 67 68 127 123 132 123 6 0
11 -19 11 -42 1 -24 3 -54 5 -68 6 -46 5 -210 -1 -220 -10 -17 0 -12 82 37
155 92 267 135 594 228 69 19 135 38 145 40 10 2 42 11 69 18 28 8 52 13 54
11 1 -1 -16 -54 -39 -116z"/>
<path d="M1610 2622 c-1 -70 -3 -162 -4 -204 -2 -83 -3 -82 54 -92 14 -2 77
-16 140 -30 296 -66 531 -116 543 -116 8 0 30 32 49 72 l36 72 -31 16 c-18 9
-95 49 -172 90 -77 40 -189 99 -250 130 -60 32 -167 87 -236 123 l-127 66 -2
-127z"/>
<path d="M3574 2741 c-5 -5 -81 -46 -169 -91 -88 -45 -191 -99 -230 -120 -38
-21 -142 -75 -230 -120 -88 -45 -161 -84 -163 -85 -2 -2 13 -35 33 -75 42 -83
20 -79 200 -40 55 12 109 24 120 26 142 28 443 97 455 103 12 6 14 29 11 122
-8 300 -8 297 -27 280z"/>
</g>
</svg>
